<svg width="48" height="48" viewBox="0 0 48 48" fill="none" xmlns="http://www.w3.org/2000/svg">
<rect width="48" height="48" fill="white"/>
<path d="M26.5 41.5C26.5 42.3619 25.6866 43.6127 23.2678 44.7357C20.9734 45.8009 17.6983 46.5 14 46.5C10.3017 46.5 7.02656 45.8009 4.73217 44.7357C2.3134 43.6127 1.5 42.3619 1.5 41.5C1.5 40.6381 2.3134 39.3873 4.73217 38.2643C7.02656 37.1991 10.3017 36.5 14 36.5C17.6983 36.5 20.9734 37.1991 23.2678 38.2643C25.6866 39.3873 26.5 40.6381 26.5 41.5Z" stroke="#152C5B" stroke-width="3"/>
<path d="M26.5 13.0909C26.5 16.4489 24.9991 23.6057 22.5034 29.9582C21.261 33.1204 19.8129 35.975 18.2575 38.0109C16.6529 40.1111 15.2006 41 14 41C12.7994 41 11.3471 40.1111 9.7425 38.0109C8.18707 35.975 6.739 33.1204 5.49662 29.9582C3.00085 23.6057 1.5 16.4489 1.5 13.0909C1.5 6.7827 6.99999 1.5 14 1.5C21 1.5 26.5 6.7827 26.5 13.0909Z" fill="white" stroke="#152C5B" stroke-width="3"/>
<circle cx="14" cy="16" r="4.5" stroke="#FF498B" stroke-width="3"/>
</svg>
