<svg width="48" height="48" viewBox="0 0 48 48" fill="none" xmlns="http://www.w3.org/2000/svg">
<rect width="48" height="48" fill="white"/>
<mask id="path-1-inside-1" fill="white">
<path d="M12 27C12.5523 27 13 27.4477 13 28L13 42C13 44.2091 11.2091 46 9 46C6.79086 46 5 44.2091 5 42L5 28C5 27.4477 5.44772 27 6 27L12 27Z"/>
</mask>
<path d="M12 27C12.5523 27 13 27.4477 13 28L13 42C13 44.2091 11.2091 46 9 46C6.79086 46 5 44.2091 5 42L5 28C5 27.4477 5.44772 27 6 27L12 27Z" stroke="#152C5B" stroke-width="6" mask="url(#path-1-inside-1)"/>
<mask id="path-2-inside-2" fill="white">
<path d="M43 27C43.5523 27 44 27.4477 44 28L44 42C44 44.2091 42.2091 46 40 46C37.7909 46 36 44.2091 36 42L36 28C36 27.4477 36.4477 27 37 27L43 27Z"/>
</mask>
<path d="M43 27C43.5523 27 44 27.4477 44 28L44 42C44 44.2091 42.2091 46 40 46C37.7909 46 36 44.2091 36 42L36 28C36 27.4477 36.4477 27 37 27L43 27Z" stroke="#152C5B" stroke-width="6" mask="url(#path-2-inside-2)"/>
<path d="M6.83489 20.7859C7.27581 19.9922 8.11236 19.5 9.02028 19.5H39.5279C40.4748 19.5 41.3405 20.035 41.7639 20.882L43.7639 24.882C44.5951 26.5442 43.3863 28.5 41.5279 28.5H6.79806C4.89185 28.5 3.68693 26.4522 4.61266 24.7859L6.83489 20.7859Z" stroke="#152C5B" stroke-width="3"/>
<path d="M16 12V19" stroke="#152C5B" stroke-width="3" stroke-linecap="round"/>
<path d="M32 12V19" stroke="#152C5B" stroke-width="3" stroke-linecap="round"/>
<mask id="path-6-inside-3" fill="white">
<path d="M19 2C19.5523 2 20 2.44772 20 3L20 8C20 10.2091 18.2091 12 16 12C13.7909 12 12 10.2091 12 8L12 3C12 2.44772 12.4477 2 13 2L19 2Z"/>
</mask>
<path d="M19 2C19.5523 2 20 2.44772 20 3L20 8C20 10.2091 18.2091 12 16 12C13.7909 12 12 10.2091 12 8L12 3C12 2.44772 12.4477 2 13 2L19 2Z" stroke="#FF498B" stroke-width="6" mask="url(#path-6-inside-3)"/>
<mask id="path-7-inside-4" fill="white">
<path d="M35 2C35.5523 2 36 2.44772 36 3L36 8C36 10.2091 34.2091 12 32 12C29.7909 12 28 10.2091 28 8L28 3C28 2.44772 28.4477 2 29 2L35 2Z"/>
</mask>
<path d="M35 2C35.5523 2 36 2.44772 36 3L36 8C36 10.2091 34.2091 12 32 12C29.7909 12 28 10.2091 28 8L28 3C28 2.44772 28.4477 2 29 2L35 2Z" stroke="#FF498B" stroke-width="6" mask="url(#path-7-inside-4)"/>
</svg>
