<svg width="48" height="48" viewBox="0 0 48 48" fill="none" xmlns="http://www.w3.org/2000/svg">
<rect width="48" height="48" fill="white"/>
<path d="M1.5 29C1.5 27.6193 2.61929 26.5 4 26.5H20C21.3807 26.5 22.5 27.6193 22.5 29V35C22.5 36.3807 21.3807 37.5 20 37.5H4C2.61929 37.5 1.5 36.3807 1.5 35V29Z" stroke="#152C5B" stroke-width="3"/>
<path d="M6 38V46" stroke="#152C5B" stroke-width="3" stroke-linecap="round"/>
<path d="M18 38V46" stroke="#152C5B" stroke-width="3" stroke-linecap="round"/>
<path d="M12 15V25" stroke="#152C5B" stroke-width="3" stroke-linecap="round"/>
<path d="M17 14V18" stroke="#152C5B" stroke-width="3" stroke-linecap="round"/>
<path d="M5.79927 2.90763C5.8437 2.67125 6.05014 2.5 6.29067 2.5H17.7093C17.9499 2.5 18.1563 2.67125 18.2007 2.90763L20.0804 12.9076C20.1383 13.2154 19.9022 13.5 19.589 13.5H4.41096C4.0978 13.5 3.86172 13.2154 3.91957 12.9076L5.79927 2.90763Z" stroke="#FF498B" stroke-width="3"/>
</svg>
