<svg width="48" height="48" viewBox="0 0 48 48" fill="none" xmlns="http://www.w3.org/2000/svg">
<rect width="48" height="48" fill="white"/>
<mask id="path-1-inside-1" fill="white">
<path fill-rule="evenodd" clip-rule="evenodd" d="M17.677 6C17.2681 6 16.9004 6.24895 16.7486 6.62861L15 11H4C1.79086 11 0 12.7909 0 15V37C0 39.2091 1.79086 41 4 41H44C46.2091 41 48 39.2091 48 37V15C48 12.7909 46.2091 11 44 11H32.75L30.7653 6.58964C30.6039 6.23078 30.2469 6 29.8534 6H17.677Z"/>
</mask>
<path d="M16.7486 6.62861L19.534 7.74278V7.74278L16.7486 6.62861ZM15 11V14H17.0311L17.7854 12.1142L15 11ZM32.75 11L30.0142 12.2311L30.8102 14H32.75V11ZM30.7653 6.58964L28.0296 7.82072L28.0296 7.82073L30.7653 6.58964ZM19.534 7.74278C19.2303 8.50209 18.4948 9 17.677 9V3C16.0414 3 14.5706 3.99581 13.9631 5.51444L19.534 7.74278ZM17.7854 12.1142L19.534 7.74278L13.9631 5.51444L12.2146 9.88583L17.7854 12.1142ZM4 14H15V8H4V14ZM3 15C3 14.4477 3.44772 14 4 14V8C0.134007 8 -3 11.134 -3 15H3ZM3 37V15H-3V37H3ZM4 38C3.44772 38 3 37.5523 3 37H-3C-3 40.866 0.134004 44 4 44V38ZM44 38H4V44H44V38ZM45 37C45 37.5523 44.5523 38 44 38V44C47.866 44 51 40.866 51 37H45ZM45 15V37H51V15H45ZM44 14C44.5523 14 45 14.4477 45 15H51C51 11.134 47.866 8 44 8V14ZM32.75 14H44V8H32.75V14ZM28.0296 7.82073L30.0142 12.2311L35.4858 9.76891L33.5011 5.35854L28.0296 7.82073ZM29.8534 9C29.0664 9 28.3525 8.53843 28.0296 7.82072L33.5011 5.35855C32.8552 3.92314 31.4275 3 29.8534 3V9ZM17.677 9H29.8534V3H17.677V9Z" fill="#152C5B" mask="url(#path-1-inside-1)"/>
<circle cx="24" cy="26" r="6.5" stroke="#FF498B" stroke-width="3"/>
<path d="M41 18H35" stroke="#152C5B" stroke-width="3" stroke-linecap="round"/>
</svg>
